# xmcd
# Copyright (C) 1995-1998 Ti Kan
#
# Track frame offsets:
#       150
#       20025
#       37725
#
# Disc length: 773 seconds
#
# Revision: 0
# Processed by: cddbd v1.5.2PL0 Copyright (c) Steve Scherf et al.
# Submitted via: CD-Transfer v1.0
#
DISCID=19030303
DTITLE=R.e.m. - 
DYEAR=07
DGENRE=
TTITLE0=
TTITLE1=Orange Crush
TTITLE2=(Don't Go Back To) Rockville
EXTD=
EXTT0=
EXTT1=
EXTT2=
PLAYORDER=
